<?xml version="1.0" standalone="no"?>
<!DOCTYPE svg PUBLIC "-//W3C//DTD SVG 20010904//EN"
 "http://www.w3.org/TR/2001/REC-SVG-20010904/DTD/svg10.dtd">
<svg version="1.0" xmlns="http://www.w3.org/2000/svg"
 width="1160.000000pt" height="1160.000000pt" viewBox="0 0 1160.000000 1160.000000"
 preserveAspectRatio="xMidYMid meet">
<metadata>
Created by potrace 1.14, written by Peter Selinger 2001-2017
</metadata>
<g transform="translate(0.000000,1160.000000) scale(0.100000,-0.100000)"
fill="#000000" stroke="none">
<path d="M5947 11133 c-2 -5 -48 -143 -101 -308 -54 -165 -137 -421 -185 -570
-135 -414 -287 -883 -416 -1280 -123 -378 -199 -612 -320 -985 -41 -124 -101
-310 -135 -415 -34 -104 -71 -219 -83 -255 l-22 -65 -2128 0 c-1170 0 -2126
-3 -2125 -7 2 -3 118 -90 260 -192 l256 -186 2012 2 2012 3 43 130 c24 72 64
195 90 275 53 167 160 494 245 755 32 99 111 342 175 540 65 198 152 468 195
600 43 132 125 381 181 554 100 310 102 314 115 280 7 -19 63 -189 124 -379
61 -190 124 -383 140 -430 28 -87 46 -142 240 -740 62 -190 145 -446 185 -570
79 -242 324 -998 330 -1016 2 -7 511 -10 1666 -9 915 0 1668 -1 1672 -3 4 -2
-95 -78 -220 -168 -125 -91 -235 -170 -243 -177 -8 -7 -37 -28 -65 -48 -186
-134 -1794 -1302 -1850 -1344 -38 -28 -125 -91 -192 -139 -68 -49 -123 -90
-123 -92 0 -4 83 -261 120 -374 15 -47 83 -254 150 -460 156 -483 342 -1054
435 -1340 41 -124 86 -263 101 -310 15 -47 71 -220 125 -384 54 -165 97 -302
95 -304 -3 -2 -77 50 -166 115 -89 65 -176 128 -193 140 -62 44 -299 216 -461
335 -28 21 -62 46 -76 55 -14 10 -79 58 -145 106 -170 124 -343 249 -369 267
-24 17 -125 90 -141 103 -5 4 -109 80 -230 167 -121 88 -228 165 -237 172 -9
7 -26 20 -38 28 -11 8 -110 80 -218 158 -108 79 -243 177 -299 218 l-103 74 0
-243 0 -242 43 -30 c51 -36 1418 -1027 1467 -1064 19 -14 44 -33 56 -41 22
-15 180 -130 495 -360 87 -63 167 -122 179 -130 12 -8 280 -203 597 -433 316
-230 577 -417 579 -415 2 3 -14 58 -35 124 -21 65 -85 261 -141 434 -56 173
-110 340 -120 370 -42 127 -176 538 -275 845 -58 182 -110 338 -115 347 -6 10
-10 23 -10 30 0 7 -31 107 -69 223 -38 115 -122 372 -186 570 -125 385 -186
573 -290 890 -36 110 -65 203 -65 207 0 4 51 43 113 88 61 45 125 91 141 103
16 12 58 43 95 69 36 26 71 51 76 55 6 5 116 85 245 179 129 93 467 338 750
544 283 206 526 382 540 393 14 10 84 61 155 113 72 51 138 99 147 106 9 7 26
20 38 28 12 8 103 75 203 148 100 73 205 149 232 168 28 19 68 49 90 65 22 16
51 37 65 47 14 9 32 22 40 29 8 7 127 93 264 193 137 99 247 181 245 181 -2 1
-960 2 -2128 3 -1877 1 -2125 3 -2132 16 -5 8 -56 164 -114 345 -59 182 -117
362 -130 400 -13 39 -69 212 -125 385 -56 173 -108 333 -115 355 -8 22 -45
137 -84 255 -38 118 -128 397 -201 620 -72 223 -160 493 -195 600 -34 107
-115 356 -179 553 l-117 357 -54 0 c-30 0 -56 -3 -58 -7z"/>
</g>
</svg>
